<svg xmlns="http://www.w3.org/2000/svg" width="560" height="470" viewBox="0 0 560 470" role="img" aria-label="De-identified sample: risk-assessment findings, hierarchy-of-controls, and recommendations tables for the synthetic T-402 scenario. Controls ranked elimination-first; owners are role labels with due dates; no real names, sites, or PII.">
  <title>Sample findings, hierarchy of controls &amp; recommendations (de-identified T-402)</title>
  <defs>
    <style>
      .ff { font-family: 'Segoe UI', Arial, sans-serif; }
      .th { font-size: 11px; font-weight: 700; fill: #ffffff; }
      .td { font-size: 11px; fill: #222; }
      .sec { font-size: 14px; font-weight: 800; fill: #1A7070; }
      .cap { font-size: 10.5px; fill: #888; }
      .hi { fill: #c0392b; font-weight: 700; }
      .med { fill: #e0941f; font-weight: 700; }
    </style>
  </defs>
  <rect x="0" y="0" width="560" height="470" fill="#ffffff" stroke="#e0e0e0"/>
  <!-- running header bar -->
  <rect x="0" y="0" width="560" height="26" fill="#2AADA8"/>
  <text x="536" y="18" text-anchor="end" class="ff" style="font-size:11px;font-weight:700;fill:#ffffff;">Confined-Space Entry — Risk Assessment</text>

  <!-- Key findings -->
  <text x="24" y="54" class="ff sec">Key findings</text>
  <rect x="24" y="64" width="512" height="22" fill="#2AADA8"/>
  <text x="34" y="79" class="ff th">Finding</text>
  <text x="200" y="79" class="ff th">Risk</text>
  <text x="300" y="79" class="ff th">Evidence</text>
  <rect x="24" y="86" width="512" height="24" fill="#F4FBFA"/>
  <text x="34" y="102" class="ff td">Oxygen deficiency</text>
  <text x="200" y="102" class="ff td hi">High</text>
  <text x="300" y="102" class="ff td">Gas log 2026-06-10</text>
  <rect x="24" y="110" width="512" height="24" fill="#ffffff"/>
  <text x="34" y="126" class="ff td">Hot-work ignition</text>
  <text x="200" y="126" class="ff td med">Medium</text>
  <text x="300" y="126" class="ff td">LEL sample 2026-06-11</text>

  <!-- Hierarchy of controls -->
  <text x="24" y="162" class="ff sec">Hierarchy of controls</text>
  <rect x="24" y="172" width="512" height="22" fill="#2AADA8"/>
  <text x="34" y="187" class="ff th">Control</text>
  <text x="300" y="187" class="ff th">Tier</text>
  <text x="440" y="187" class="ff th">Owner</text>
  <rect x="24" y="194" width="512" height="22" fill="#F4FBFA"/>
  <text x="34" y="209" class="ff td">Eliminate entry — clean externally</text>
  <text x="300" y="209" class="ff td">Elimination</text>
  <text x="440" y="209" class="ff td">Process Eng</text>
  <rect x="24" y="216" width="512" height="22" fill="#ffffff"/>
  <text x="34" y="231" class="ff td">Continuous forced-air ventilation</text>
  <text x="300" y="231" class="ff td">Engineering</text>
  <text x="440" y="231" class="ff td">Maintenance</text>
  <rect x="24" y="238" width="512" height="22" fill="#F4FBFA"/>
  <text x="34" y="253" class="ff td">Entry permit + standby attendant</text>
  <text x="300" y="253" class="ff td">Administrative</text>
  <text x="440" y="253" class="ff td">HSE Officer</text>

  <!-- Recommendations -->
  <text x="24" y="289" class="ff sec">Recommendations (SMART actions)</text>
  <rect x="24" y="299" width="512" height="22" fill="#2AADA8"/>
  <text x="34" y="314" class="ff th">Action</text>
  <text x="280" y="314" class="ff th">Priority</text>
  <text x="370" y="314" class="ff th">Owner</text>
  <text x="460" y="314" class="ff th">Due</text>
  <rect x="24" y="321" width="512" height="22" fill="#F4FBFA"/>
  <text x="34" y="336" class="ff td">Install fixed gas monitor</text>
  <text x="280" y="336" class="ff td">P1</text>
  <text x="370" y="336" class="ff td">HSE Officer</text>
  <text x="460" y="336" class="ff td">+11 days</text>
  <rect x="24" y="343" width="512" height="22" fill="#ffffff"/>
  <text x="34" y="358" class="ff td">Revise confined-space SOP</text>
  <text x="280" y="358" class="ff td">P2</text>
  <text x="370" y="358" class="ff td">HSE Officer</text>
  <text x="460" y="358" class="ff td">+25 days</text>

  <text x="24" y="392" class="ff cap">Controls ranked elimination-first; PPE-only treatments flagged for justification — the core value made visible.</text>
  <text x="24" y="410" class="ff cap">Every owner is a role label — de-identified sample, synthetic T-402 scenario. No real names, sites, or PII.</text>

  <line x1="24" y1="440" x2="536" y2="440" stroke="#1A7070" stroke-width="1"/>
  <text x="24" y="460" class="ff cap" style="fill:#1A7070;">DRAFT — every output must be reviewed and signed off by a competent person. Eyekyam · eyekyam.com</text>
</svg>
